<svg xmlns="http://www.w3.org/2000/svg" width="256" height="256"><path fill-opacity=".016" d="M0 128.004v128.004l128.25-.254 128.25-.254.254-127.75L257.008 0H0v128.004m.485.496c0 70.4.119 99.053.265 63.672.146-35.38.146-92.98 0-128C.604 29.153.485 58.1.485 128.5" fill="#1976D2" fill-rule="evenodd"/><path fill-opacity=".107" d="M132.882 1.75a5.707 5.707 0 000 1.5c.065.413-2.582.75-5.882.75-3.333 0-6 .444-6 1 0 .55-2.025 1-4.5 1s-4.5.45-4.5 1-1.827 1-4.059 1c-2.451 0-3.814.396-3.441 1 .34.55-.309 1.067-1.441 1.15-1.132.082-2.621.195-3.309.25-.687.055-1.61.663-2.05 1.35-.44.688-2.127 1.25-3.75 1.25-1.622 0-2.95.45-2.95 1s-1.35 1-3 1-3 .45-3 1-1.125 1-2.5 1-2.5.45-2.5 1-1.2 1-2.667 1c-1.466 0-2.358.308-1.982.684.732.733-9.942 6.316-12.076 6.316-.701 0-1.275.45-1.275 1s-.695 1-1.544 1c-.849 0-2.757 1.125-4.239 2.5-1.483 1.375-3.264 2.5-3.957 2.5-.693 0-1.26.374-1.26.831 0 .457-1.237 1.47-2.75 2.25S43.773 39.075 41.662 41c-2.111 1.925-4.537 3.895-5.391 4.379-2.077 1.175-11.269 10.452-11.28 11.384-.004.405-1.579 2.394-3.5 4.42C19.571 63.209 18 65.262 18 65.745c0 .483-.822 1.761-1.828 2.839-1.005 1.079-2.666 3.864-3.692 6.189C11.454 77.098 10.252 79 9.808 79 9.363 79 9 79.9 9 81s-.45 2-1 2-1 1.35-1 3-.45 3-1 3-1 1.548-1 3.441c0 1.893-.45 3.719-1 4.059-.55.34-1.003 2.954-1.006 5.809-.004 2.855-.679 6.48-1.5 8.055C.672 111.94 0 114.701 0 116.5c0 1.799.672 4.56 1.494 6.136.821 1.575 1.496 5.425 1.5 8.555.003 3.13.456 5.969 1.006 6.309.55.34 1 2.166 1 4.059 0 1.893.45 3.441 1 3.441s1 1.35 1 3 .45 3 1 3 1 1.125 1 2.5.45 2.5 1 2.5 1 .718 1 1.596c0 1.765 3.068 7.712 4.25 8.237.413.184.75 1.196.75 2.25 0 1.055.45 1.917 1 1.917s1 .533 1 1.186c0 .652.866 2.114 1.925 3.25 1.059 1.135 2.071 2.715 2.25 3.51.179.796 1.337 2.423 2.575 3.615 1.237 1.193 2.25 2.679 2.25 3.304 0 .624.45 1.135 1 1.135s1 .453 1 1.006c0 2.3 25.27 27.563 34.004 33.994 1.867 1.375 4.205 3.288 5.195 4.25.991.963 2.251 1.75 2.801 1.75.55 0 1 .45 1 1s.59 1 1.311 1c.722 0 2.278.9 3.459 2 1.18 1.1 2.412 2 2.736 2 .325 0 2.931 1.481 5.792 3.29 2.861 1.81 8.802 4.992 13.202 7.071 4.4 2.08 8.781 4.199 9.736 4.71.955.511 2.616.929 3.691.929 1.075 0 2.233.45 2.573 1 .34.55 1.915 1 3.5 1s3.16.45 3.5 1c.34.55 2.365 1 4.5 1s4.16.45 4.5 1c.837 1.355 36.5 1.355 36.5 0 0-.55 1.8-1 4-1s4-.45 4-1 1.054-1 2.343-1c2.39 0 16.885-6.816 17.49-8.224.184-.427.886-.776 1.562-.776.675 0 2.1-.801 3.166-1.78 1.067-.979 3.733-3.117 5.927-4.75 5.228-3.894 10.095-8.859 14.967-15.267 2.176-2.862 4.314-5.203 4.75-5.203.437 0 .795-.59.795-1.311 0-.722.9-2.278 2-3.459 1.1-1.18 2-2.658 2-3.284 0-.625.808-2.332 1.795-3.792.988-1.46 2.675-4.561 3.75-6.893 1.075-2.331 2.293-4.243 2.705-4.25.412-.006.75-1.136.75-2.511 0-1.375.45-2.5 1-2.5s1-1.125 1-2.5.45-2.5 1-2.5 1-1.302 1-2.893c0-1.591.619-3.131 1.376-3.421.845-.324 1.198-1.464.914-2.949-.255-1.332.139-3.055.874-3.829s1.488-2.983 1.674-4.908c.187-1.925.749-3.65 1.25-3.833.502-.184.912-2.546.912-5.25 0-2.705.45-4.917 1-4.917.556 0 1-2.667 1-6s.444-6 1-6c.642 0 1-9.853 1-27.559 0-18.118-.343-27.347-1-26.941-.621.384-1-1.509-1-5s-.379-5.384-1-5c-.602.372-1-.954-1-3.334 0-2.715-.505-4.146-1.614-4.571-1.086-.417-1.46-1.425-1.145-3.077.259-1.352.117-2.24-.313-1.973-.92.568-2.124-2.732-1.713-4.691.157-.745-.277-1.242-.965-1.104-.687.137-1.25-.682-1.25-1.821 0-1.14-.679-2.751-1.509-3.581-.83-.83-1.211-1.992-.846-2.583.365-.591.232-.807-.296-.481-.528.327-1.835-1.059-2.905-3.079-1.069-2.019-3.388-5.215-5.152-7.102-1.764-1.887-2.932-3.876-2.595-4.421.336-.545.123-.689-.476-.319-.606.375-1.876-.664-2.87-2.345-.98-1.66-2.248-3.023-2.817-3.03-.569-.006-3.06-1.919-5.537-4.25-2.476-2.331-5.172-4.387-5.99-4.568-.819-.182-1.717-.665-1.998-1.074-.28-.41-3.289-2.045-6.686-3.634s-6.017-3.148-5.822-3.464c.195-.315-.85-.673-2.323-.794-1.473-.122-2.828-.667-3.011-1.213-.184-.545-2.123-.991-4.309-.991-2.396 0-3.73-.397-3.358-1 .383-.62-1.591-1.03-5.191-1.079-3.195-.043-5.244-.307-4.553-.585.691-.279 1.002-.918.691-1.421-.674-1.091-42.394-1.252-42.565-.165M108 40c0 .55-2.277 1-5.059 1-3.118 0-4.822.384-4.441 1 .361.584-.667 1-2.472 1-1.82 0-3.327.615-3.664 1.494-.316.822-.966 1.252-1.446.955-1.109-.685-9.837 4.152-12.009 6.656-.904 1.042-2.065 1.895-2.58 1.895C75.342 54 69 60.193 69 61.158c0 .309-1.575 2.232-3.5 4.273-1.925 2.041-3.5 4.354-3.5 5.14 0 .786-.45 1.429-1 1.429s-1 .9-1 2-.45 2-1 2-1 1.125-1 2.5-.45 2.5-1 2.5-1 1.088-1 2.417c0 1.329-.495 2.581-1.099 2.783-.605.201-1.215 1.839-1.357 3.64-.142 1.8-.772 3.788-1.401 4.417S51 97.56 51 100.2c0 2.64-.45 4.8-1 4.8-1.359 0-1.359 40.66 0 41.5.55.34 1 2.59 1 5s.411 4.636.913 4.946c.502.311 1.217 2.362 1.588 4.559S54.586 165 55.088 165s.912 1.35.912 3 .45 3 1 3 1 .9 1 2 .45 2 1 2 1 .9 1 2 .45 2 1 2 1 .627 1 1.393.675 1.652 1.5 1.969c.825.316 1.5 1.223 1.5 2.014C65 188.499 87.499 207 92.513 207c.753 0 1.647.45 1.987 1 .34.55 1.626 1 2.859 1s2.668.41 3.191.912c.522.502 3.65 1.188 6.95 1.525 15.697 1.603 18.759 1.704 19.81.653.599-.599 3.898-1.09 7.331-1.09 3.433 0 6.519-.45 6.859-1 .34-.55 2.14-1 4-1 1.86 0 3.66-.45 4-1 .34-.55 1.661-1 2.937-1 1.275 0 2.874-.67 3.554-1.489.68-.819 1.611-1.257 2.071-.973.459.284 3.192-.621 6.074-2.011 2.881-1.39 5.829-2.527 6.551-2.527.722 0 1.313-.45 1.313-1s.787-1.01 1.75-1.022c.963-.012 2.875-.902 4.25-1.978s3.077-1.966 3.781-1.978c.705-.012 1.54-.694 1.855-1.516.316-.822.94-1.268 1.388-.991.448.277 1.494-.176 2.324-1.006.83-.83 1.991-1.509 2.581-1.509.589 0 1.071-.417 1.071-.927 0-.509.609-1.072 1.354-1.25 2.818-.673 22.646-18.181 22.646-19.996 0-.465 1.35-2.258 3-3.984 1.65-1.727 3-3.973 3-4.991 0-1.019.417-1.852.927-1.852 1.067 0 4.073-5.649 4.073-7.654 0-.74.45-1.346 1-1.346s1-1.35 1-3 .45-3 1-3c.572 0 1-3.02 1-7.059 0-4.451.369-6.831 1-6.441.577.357.994-.57.985-2.191-.012-2.181-.232-2.474-.985-1.309-.672 1.04-.974-.877-.985-6.25-.009-4.49-.436-7.75-1.015-7.75-.55 0-1-1.35-1-3s-.45-3-1-3-1-1.125-1-2.5-.45-2.5-1-2.5-1-.695-1-1.545-1.125-2.671-2.5-4.046c-1.375-1.375-2.512-3.042-2.527-3.704-.034-1.501-6.643-8.705-7.986-8.705-.543 0-.987-.702-.987-1.559s-.45-1.281-1-.941c-.55.34-1 .109-1-.512 0-.622-.567-1.661-1.261-2.309-6.199-5.796-9.974-8.652-10.779-8.154-.528.326-.96-.071-.96-.882 0-.812-1.35-2.073-3-2.803-1.65-.731-3-1.668-3-2.084 0-.416-.675-.756-1.5-.756s-1.5-.45-1.5-1-.9-1-2-1-2.003-.337-2.006-.75c-.009-1.006-5.791-4.25-7.575-4.25-.78 0-1.419-.45-1.419-1s-.9-1-2-1-2-.45-2-1-1.125-1-2.5-1-2.5-.45-2.5-1-.932-1-2.071-1c-1.14 0-2.747-.675-3.572-1.5-.825-.825-2.341-1.5-3.369-1.5-1.029 0-2.148-.45-2.488-1-.34-.55-2.391-1-4.559-1S144 42.55 144 42s-2.502-1-5.559-1c-3.451 0-5.325-.379-4.941-1 .4-.647-3.99-1-12.441-1-8.039 0-13.059.384-13.059 1m15.325 46.75c-.939.688-3.196 1.25-5.016 1.25-1.82 0-3.309.45-3.309 1s-.9 1-2 1-2 .45-2 1-.695 1-1.544 1c-.849 0-2.757 1.125-4.239 2.5-1.483 1.375-3.164 2.5-3.736 2.5-.572 0-1.701.963-2.51 2.139-.809 1.177-2.484 3.379-3.721 4.894-1.237 1.516-2.25 3.253-2.25 3.861 0 .608-.45 1.106-1 1.106s-1 .9-1 2-.45 2-1 2-1 1.773-1 3.941-.45 4.219-1 4.559c-.55.34-1 2.365-1 4.5s.45 4.16 1 4.5c.55.34 1 2.391 1 4.559S89.45 139 90 139s1 .9 1 2 .45 2 1 2 1 .618 1 1.374c0 1.606 10.493 12.467 14.059 14.553 5.196 3.039 7.506 4.061 9.191 4.067.963.003 1.75.456 1.75 1.006s2.223 1 4.941 1 5.219.45 5.559 1c.34.55 2.616 1 5.059 1s4.441-.45 4.441-1 2.475-1 5.5-1 5.5-.45 5.5-1a1 1 0 01.993-1c1.708 0 9.007-3.433 9.007-4.236 0-.42.447-.764.992-.764 1.816 0 11.336-8.716 12.288-11.25.361-.963 1.121-1.75 1.689-1.75.567 0 1.031-1.152 1.031-2.559 0-1.451.433-2.292 1-1.941.595.368 1-.823 1-2.941 0-1.957.45-3.559 1-3.559.589 0 1-3.52 1-8.559 0-5.451-.363-8.335-1-7.941-.595.368-1-.823-1-2.941 0-1.957-.398-3.559-.883-3.559-.486 0-1.148-.787-1.471-1.75-.324-.963-1.163-2.621-1.867-3.686-1.868-2.827-10.578-11.431-11.072-10.937-.232.232-.991-.265-1.687-1.103-.696-.838-1.885-1.524-2.642-1.524-.758 0-1.378-.45-1.378-1s-1.125-1-2.5-1-2.5-.45-2.5-1-1.543-1-3.429-1c-1.885 0-4.023-.562-4.75-1.25-.837-.792-4.339-1.25-9.555-1.25-5.01 0-8.903.489-9.941 1.25m131.961 22.75c.008 2.75.202 3.756.432 2.236.229-1.52.223-3.77-.014-5-.237-1.23-.425.014-.418 2.764" fill="#1976D2" fill-rule="evenodd"/><path fill-opacity=".339" d="M145.815 2.056c-.194.581-4.394 1.458-9.334 1.949-4.939.49-12.131 1.624-15.981 2.519-3.85.895-8.125 1.852-9.5 2.127-1.375.275-3.4.862-4.5 1.305-1.1.443-5.375 1.847-9.5 3.12-11.155 3.441-27.476 10.823-36.769 16.631-2.899 1.811-5.599 3.297-6 3.303-.402.005-2.707 1.58-5.122 3.5-2.415 1.919-4.694 3.49-5.066 3.49-1.402 0-19.919 18.732-23.725 24C12.892 74.281 7.134 86.837 4.146 99.264c-1.476 6.137-1.482 28.298-.01 34.472 4.441 18.619 11.777 34.828 21.618 47.764 9.615 12.639 24.872 28.428 35.746 36.994 2.75 2.166 5.225 4.206 5.5 4.532.881 1.048 13.731 9.974 14.358 9.974.332 0 2.974 1.494 5.873 3.32 11.111 7 30.525 14.683 42.769 16.926 8.226 1.507 31.074 2.08 32.342.812.582-.582 2.431-1.069 4.108-1.083 7.594-.061 24.238-7.572 35.375-15.964 16.541-12.464 27.479-27.523 37.588-51.751 12.331-29.553 17.575-70.883 12.481-98.389-1.158-6.254-2.332-12.838-2.61-14.63-.278-1.793-.905-3.507-1.394-3.809-.49-.303-.89-1.43-.89-2.505s-.399-2.736-.888-3.691c-.488-.955-2.151-4.436-3.696-7.736-8.438-18.029-25.219-35.005-41.916-42.404-1.65-.731-3.781-1.727-4.736-2.213C194.809 9.397 193.34 9 192.5 9c-.84 0-2.309-.429-3.264-.954C186.315 6.441 174.634 4 169.877 4c-2.472 0-5.368-.661-6.436-1.468-2.316-1.752-17.068-2.15-17.626-.476M103.5 39.586c-6.303 1.491-6.983 1.741-15 5.513C69.326 54.122 55.566 73.42 50.067 99c-2.913 13.552-2.896 38.946.035 53 4.551 21.818 16.802 41.076 32.395 50.924 12.98 8.197 31.338 12.221 46.381 10.165 9.955-1.361 20.845-3.755 23.358-5.135.955-.525 2.424-.954 3.264-.954.84 0 2.309-.392 3.264-.871.955-.478 7.136-3.467 13.736-6.642 32.368-15.569 53.747-38.625 58.953-63.577 1.901-9.117 1.921-11.67.151-19.91-1.702-7.925-1.967-8.668-6.331-17.719-3.953-8.198-13.212-19.552-21.889-26.839-3.236-2.718-6.034-5.28-6.217-5.692-.184-.412-.778-.75-1.321-.75-.543 0-3.768-1.947-7.167-4.326-5.28-3.697-21.712-12.28-28.179-14.718-19.864-7.49-41.87-9.949-57-6.37m20.5 48.04c-7.27.904-18.179 6.661-24.287 12.817C92.306 107.91 89 115.821 89 126.085c0 7.035.419 9.007 3.113 14.653 4.843 10.147 13.243 17.149 26.887 22.412 2.155.831 7.536 1.343 14 1.331 8.524-.015 11.723-.465 17-2.391 11.643-4.249 19.389-11.059 24.556-21.59 2.557-5.212 2.944-7.117 2.944-14.5 0-7.38-.387-9.29-2.942-14.5-4.85-9.894-14.294-18.094-25.558-22.193-3.74-1.361-19.208-2.401-25-1.681" fill="#1976D2" fill-rule="evenodd"/><path fill-opacity=".21" d="M47.176 42.224c-.647.647-1.183.748-1.191.226-.009-.522-.493-.275-1.076.55-.846 1.196-1.169 1.232-1.593.177-.397-.988-1.13-.761-2.893.895-1.299 1.22-2.124 2.603-1.833 3.073.29.47-.174.855-1.031.855S36 48.477 36 49.059s-.45.781-1 .441-1 .159-1 1.108c0 .949-.27 1.455-.6 1.125-.732-.731-5.873 4.333-9.914 9.767-1.636 2.2-3.264 4.225-3.617 4.5-.767.597-5.443 8.893-8.172 14.5a656.637 656.637 0 01-2.822 5.736C8.394 87.191 8 88.852 8 89.927c0 1.075-.39 2.196-.867 2.491-.477.295-1.138 2.459-1.468 4.809-.33 2.35-1.045 6.298-1.589 8.773-2.294 10.439.138 30.66 5.172 43 .561 1.375 1.351 3.4 1.756 4.5 3.546 9.623 13.885 26.502 22.665 37 7.136 8.532 21.629 22.47 29.831 28.686 3.85 2.919 7.225 5.589 7.5 5.934.275.345 4.325 3.068 9 6.052 18.939 12.087 38.405 19.833 53.778 21.4 3.147.321 6.673 1.042 7.835 1.602 4.015 1.934 26.615-1.233 36.887-5.168 13.176-5.049 23.836-11.956 32.812-21.26 8.99-9.319 20.5-25.6 19.093-27.008-.249-.249.206-1 1.011-1.669.806-.668 1.19-1.931.855-2.806-.364-.947-.198-1.336.408-.961.561.346 1.59-.592 2.287-2.086a159.79 159.79 0 012.224-4.571c.662-1.28.625-1.649-.116-1.191-.632.391-1.074-.183-1.074-1.395 0-1.392.648-2.059 2-2.059 1.1 0 2-.45 2-1s-.45-1-1-1c-1.302 0-1.302-4.695 0-5.5.55-.34 1-.141 1 .441s.45 1.059 1 1.059c1.792 0 1.052-1.849-1-2.5-1.278-.406-2-1.513-2-3.067 0-1.537-.574-2.433-1.559-2.433-.857 0-1.281-.45-.941-1 .345-.558-.416-1-1.72-1-1.286 0-2.987-.9-3.78-2-.793-1.1-2.242-2-3.221-2-.978 0-1.779-.354-1.779-.786 0-.432-.833-.785-1.85-.785-1.344 0-1.711.535-1.34 1.954.399 1.525.135 1.81-1.201 1.297-1.023-.393-1.465-.256-1.098.339.339.547-.2 1.28-1.198 1.627-2.804.978-9.467 8.295-8.693 9.548.408.66.237.836-.419.43-1.057-.653-1.929-.091-8.035 5.176-1.466 1.265-3.904 3.049-5.416 3.965-1.512.917-2.75 2.019-2.75 2.451 0 .431-.675.784-1.5.784s-1.5.45-1.5 1-.472 1-1.048 1c-.576 0-3.389 1.467-6.25 3.259-2.861 1.793-6.327 3.761-7.702 4.374-1.375.612-4.75 2.128-7.5 3.367-11.167 5.033-16.485 7-18.922 7-1.198 0-2.605.404-3.128.898-2.414 2.28-33.369 3.973-39.7 2.17-2.062-.587-5.662-1.596-8-2.24-8.638-2.383-18.069-8.16-25.836-15.828C64.657 187.835 57 177.403 57 174.681c0-.705-.411-1.708-.912-2.231-1.147-1.194-5.484-14.315-6.925-20.95-2.149-9.896-3.465-25.364-2.737-32.174 2.472-23.126 4.32-30.774 10.432-43.171 1.179-2.39 1.92-4.705 1.648-5.145-.272-.44.17-1.056.983-1.367.859-.33 1.224-1.228.871-2.146-.39-1.019-.118-1.476.767-1.288.828.176 1.256-.404 1.079-1.459-.178-1.061.337-1.75 1.309-1.75.922 0 1.311-.473.916-1.112-.378-.611-.292-1.399.191-1.75s1.379-1.545 1.991-2.655c.855-1.55.792-2.315-.272-3.309-.762-.712-1.123-1.717-.804-2.234.32-.517-.147-.94-1.037-.94-.89 0-1.34-.45-1-1 .34-.55-.341-1-1.512-1C59.714 49 57 46.852 57 45.052c0-.663-.978-.845-2.5-.463-1.963.493-2.5.247-2.5-1.147 0-.977-.296-1.479-.658-1.117-.362.362-1.183.222-1.824-.31-.764-.634-1.571-.562-2.342.209M120.5 90c.34.55.816 1 1.059 1s.441-.45.441-1-.477-1-1.059-1-.781.45-.441 1m-6.485 2.75c-.016 2.392-2.487 3.126-3.364 1-.312-.755-.789-.353-1.205 1.016-.378 1.246-1.196 2.206-1.817 2.132a12.23 12.23 0 00-2.264-.016c-1.705.178-9.232 8.228-10.63 11.368-.673 1.513-1.563 2.75-1.979 2.75-.416 0-.756 1.098-.756 2.441 0 1.343-.45 2.719-1 3.059-1.239.766-1.33 16.883-.109 19.264.489.955 1.855 3.761 3.035 6.236 4.55 9.548 13.537 16.45 27.145 20.846 4.541 1.467 19.182 1.496 23.858.048 9.932-3.078 22.757-10.975 21.396-13.177-.349-.564-.149-.726.444-.36 1.098.679 5.231-4.268 5.231-6.261 0-.603.45-1.096 1-1.096s1-.477 1-1.059-.45-.781-1-.441-1-.309-1-1.441c0-1.132.338-2.006.75-1.941 1.867.295 3.25-.206 3.25-1.177 0-.582-.45-.781-1-.441-.616.381-1-1.323-1-4.441 0-3.915-.352-5.059-1.559-5.059-.857 0-1.328-.374-1.045-.831.282-.457-1.041-1.441-2.941-2.187-1.9-.745-3.455-1.973-3.455-2.728 0-.754-.399-1.125-.887-.824-.487.301-1.442-.122-2.122-.941-.68-.819-1.756-1.489-2.393-1.489-.636 0-1.805-.9-2.598-2-.793-1.1-2.494-2-3.78-2-1.304 0-2.065-.442-1.72-1 .34-.55-.084-1-.941-1s-1.446-.562-1.309-1.25c.154-.772-.611-1.13-2-.937-1.537.214-2.25-.201-2.25-1.309 0-.892-.45-1.344-1-1.004-.55.34-1-.084-1-.941 0-1.006-.908-1.559-2.559-1.559-1.451 0-2.292-.433-1.941-1 .34-.55.122-1-.485-1-.606 0-2.29-1.101-3.741-2.446-1.451-1.346-3.006-2.22-3.456-1.941-.45.278-.818-.197-.818-1.054S129.298 95 128.441 95s-1.281-.45-.941-1c.649-1.051-2.608-1.46-8.383-1.052-1.975.139-3.738-.32-4.235-1.105-.615-.971-.856-.719-.867.907M222 160.059c0 .582.45.781 1 .441s1-.816 1-1.059-.45-.441-1-.441-1 .477-1 1.059" fill="#1976D2" fill-rule="evenodd"/></svg>