<svg xmlns="http://www.w3.org/2000/svg" width="256" height="256"><path fill-opacity=".016" d="M0 128.004v128.004l128.25-.254 128.25-.254.254-127.75L257.008 0H0v128.004m.485.496c0 70.4.119 99.053.265 63.672.146-35.38.146-92.98 0-128C.604 29.153.485 58.1.485 128.5" fill="#1976D2" fill-rule="evenodd"/><path fill-opacity=".247" d="M132.825 1.038c-2.843 1.659-4.076 7.178-2.882 12.899.581 2.785 1.554 7.425 2.161 10.313 1.646 7.83.636 16.811-2.491 22.148-4.995 8.523-12.408 13.021-35.613 21.606-16.697 6.178-29.399 11.653-35.316 15.224C42.009 93.289 31.205 106.288 25.628 123c-3.68 11.024-3.86 12.178-4.362 27.907-.527 16.503.743 23.786 6.234 35.75 10.616 23.133 34.676 42.773 64.566 52.704 15.182 5.043 20.962 6.096 33.609 6.118 10.821.019 12.489-.212 15-2.078 4.687-3.482 4.229-6.78-2.102-15.159-12.908-17.079-8.211-23.84 25.927-37.322 14.466-5.713 31.211-13.97 38.856-19.161 21.75-14.77 32.267-36.752 31.222-65.259-.939-25.592-9.004-44.398-28.613-66.715-11.528-13.12-36.984-31.022-53.084-37.332-6.588-2.581-16.82-3.303-20.056-1.415M94.687 111.456c-.839.839-2.04 3.217-2.668 5.285C88.534 128.212 88.049 129 84.476 129c-1.847 0-3.636-.45-3.976-1-.996-1.611-7.205-1.15-10.363.77l-2.911 1.771 3.822 1.858c3.892 1.894 5.99 1.806 11.622-.487 4.208-1.713 5.587-.496 7.765 6.85 2.475 8.35 3.359 10.222 5.157 10.912 2.031.779 2.934-.634 5.384-8.436 3.472-11.055 4.754-12.059 10.524-8.238 3.819 2.529 7.012 2.529 10.227 0 4.38-3.445 6.794-2.658 9.96 3.25 2.177 4.063 3.417 5.32 5.486 5.559 2.251.26 3.096-.413 5.349-4.256 3.257-5.558 6.202-6.598 10.341-3.651 3.886 2.767 6.253 2.646 9.641-.493 2.652-2.458 3.184-2.559 10.396-1.967 4.18.343 8.944.24 10.586-.228l2.987-.851-4.08-1.035c-2.461-.625-6.396-.721-9.917-.244-5.923.804-8.103.275-10.431-2.529-1.603-1.932-7.4-2.037-8.955-.163-3.24 3.904-6.27 2.474-12.675-5.981-2.525-3.334-4.749-2.807-7.202 1.708-.942 1.735-2.659 4.298-3.815 5.696l-2.101 2.542-4.18-2.179c-4.826-2.515-8.793-2.737-11.558-.646-1.068.807-3.151 1.468-4.629 1.468-2.953 0-3.627-1.17-6.433-11.166-1.893-6.745-3.585-8.603-5.81-6.378m78.434 108.656c-12.493 6.346-13.73 24.824-2.173 32.472 10.19 6.743 23.141 3.033 28.187-8.075 2.445-5.381 2.325-10.185-.385-15.489-5.095-9.973-16.041-13.777-25.629-8.908" fill="#1976D2" fill-rule="evenodd"/><path fill-opacity=".206" d="M132.635 2.073C130.38 3.846 130 4.91 130 9.447c0 2.916.675 7.215 1.5 9.553.891 2.527 1.5 7.772 1.5 12.929 0 7.333-.402 9.484-2.59 13.876-4.64 9.311-11.547 13.513-39.41 23.975-10.175 3.821-20.75 7.998-23.5 9.283-18.83 8.797-33.399 23.429-39.906 40.076-4.915 12.577-6.096 19.373-6.059 34.861.038 15.846 1.674 23.511 7.471 35.007C44.568 219.864 88.105 245 125.99 245c10.507 0 16.503-1.516 17.632-4.457.942-2.455-.415-6.236-3.508-9.775-5.997-6.862-8.114-10.894-8.114-15.457 0-10.201 5.196-14.009 35.767-26.211 39.256-15.667 57.188-31.59 63.742-56.6 5.761-21.985 3.134-45.416-7.44-66.364C213.257 44.717 190.202 22.493 164 8.228 149.298.225 137.842-2.024 132.635 2.073M93.074 113.118c-1.042 1.715-2.199 4.737-2.571 6.715-.97 5.172-3.283 9.173-5.279 9.132-.948-.02-2.849-.679-4.224-1.465-3.49-1.995-6.289-1.839-10.993.613l-4.054 2.114 3.52 1.886c4.082 2.189 7.53 2.377 12.25.67 4.799-1.735 6.286-.368 8.897 8.181 1.229 4.026 2.942 8.027 3.807 8.892 1.431 1.43 1.731 1.415 3.323-.168.963-.958 2.875-5.217 4.25-9.464 2.732-8.442 4.739-9.921 9.207-6.792 2.815 1.972 7.813 2.02 10.352.1 1.067-.808 3.169-1.483 4.671-1.5 2.179-.026 3.13.753 4.717 3.864 2.365 4.636 4.667 7.104 6.626 7.104.787 0 3.015-2.206 4.952-4.902 4.13-5.749 5.36-6.401 8.582-4.551 6.867 3.942 6.79 3.93 9.672 1.618 4.268-3.423 6.355-3.982 11.721-3.137 2.906.457 7.06.357 9.919-.24l4.919-1.026-3.419-1.445c-2.541-1.073-5.472-1.276-11.419-.788-7.714.632-8.087.562-10.424-1.937-2.911-3.112-4.534-3.22-8.85-.588-4.803 2.928-6.347 2.513-10.246-2.754-4.907-6.63-7.535-6.514-11.293.5-3.171 5.917-5.188 6.561-10.187 3.25-3.834-2.539-5.722-2.508-10.38.173-2.076 1.195-4.492 1.898-5.368 1.562-.942-.361-2.648-4.068-4.172-9.066-2.233-7.321-3.733-9.669-6.176-9.669-.239 0-1.287 1.403-2.33 3.118M177 219.144c-13.426 3.934-18.102 19.836-8.911 30.304 11.245 12.808 32.428 4.505 32.205-12.622-.155-11.926-12.071-20.971-23.294-17.682" fill="#1976D2" fill-rule="evenodd"/><path fill-opacity=".113" d="M194.38 37.452c-.306.799-.269 1.919.083 2.489.397.641-.013.785-1.075.378-1.181-.453-1.486-.286-.978.536.406.657.368 1.13-.086 1.051-2.305-.4-3.484.234-2.962 1.594.316.825.225 1.5-.202 1.5-.428 0-1.651.708-2.719 1.574-1.067.866-1.384 1.293-.702.948.826-.418 1.033-.091.621.984-.34.885-1.2 1.386-1.912 1.113-.904-.347-1.16.238-.851 1.942.245 1.351-.039 2.439-.636 2.439-.594 0-.754.526-.356 1.17.486.787.178.961-.941.531-1.205-.462-1.664-.095-1.664 1.33 0 1.083-.645 1.969-1.433 1.969s-1.722.912-2.075 2.026c-.369 1.163-1.357 1.909-2.318 1.75-1.241-.205-1.588.334-1.343 2.083.211 1.498-.063 2.116-.75 1.691-.594-.367-1.081-.165-1.081.45s-.521.796-1.158.403c-.793-.491-.98-.037-.593 1.441.31 1.186.156 2.156-.343 2.156-.498 0-.906.873-.906 1.941s-.52 2.262-1.155 2.654c-.776.481-.887.255-.338-.69.448-.773-.495-.287-2.096 1.08a443.324 443.324 0 01-3.911 3.309c-.55.454-.139.496.914.095 1.336-.509 1.696-.375 1.191.441-.398.644-1.427 1.17-2.286 1.17-1.287 0-1.34.269-.3 1.523 1.046 1.26 1.003 1.423-.249.942-1.594-.611-3.204 2.024-2.214 3.625.309.501-.063.91-.828.91-.765 0-1.984 1.11-2.71 2.466s-1.771 2.187-2.323 1.845c-.552-.341-.722-.163-.377.395s-1.048 2.75-3.095 4.872c-2.048 2.121-2.925 3.245-1.95 2.498 1.521-1.166 1.691-1.146 1.197.142-.317.825-1.677 2.09-3.023 2.81-1.346.721-2.447 1.935-2.447 2.7 0 .765-.419 1.131-.931.815-.512-.317-1.256-.049-1.654.595-.452.731-.291.903.43.457.697-.43 1.155-.052 1.155.953 0 1.064-.538 1.46-1.488 1.095-.844-.324-1.385-.062-1.25.606.131.648-.774 1.638-2.012 2.202-1.238.563-2.243 1.704-2.235 2.536.014 1.342.125 1.343.985.013.828-1.282.972-1.246.985.25.013 1.571-1.089 2.207-3.235 1.868-.412-.065-.661.22-.552.632.407 1.538-1.376 5.258-2.259 4.713-.504-.312-.646.137-.316.996.423 1.104.156 1.393-.911.984-1.867-.717-3.195 1.14-1.545 2.16.841.52.621.987-.733 1.561-1.894.802-1.893.814.027.571 1.185-.149 3.152-2.333 4.97-5.519 2.846-4.986 3.21-5.259 6.729-5.052 2.046.121 3.531.527 3.299.903-.233.376.939 2.563 2.604 4.861 3.198 4.414 4.763 4.653 9.41 1.437 2.852-1.974 5.853-1.683 9.121.885 2.536 1.993 4.007 2.25 12.884 2.25 11.703 0 14.719 1.073 8.897 3.164-2.754.989-6.126 1.208-11.655.757-7.45-.608-7.89-.524-10.386 1.972-3.127 3.127-4.788 3.237-9.108.603-4.804-2.928-6.347-2.513-10.24 2.754-4.153 5.618-7.123 6.497-9.532 2.82-.92-1.404-1.994-2.354-2.387-2.111-.394.243-.682-.503-.641-1.658.091-2.573-4.266-3.505-7.677-1.642-2.991 1.633-7.515 1.112-11.489-1.324-1.782-1.092-4.032-1.779-5-1.526-1.497.39-1.461.477.24.582 1.1.067 3.35 1.016 5 2.109s4.03 1.99 5.289 1.993c1.908.006 2.075.239 1 1.402-.709.767-1.696 1.148-2.194.846-.497-.303-.581-.027-.186.612.395.639.015 1.866-.845 2.726-1.187 1.187-1.582 1.246-1.64.242-.042-.726-.645.254-1.339 2.179-.695 1.925-1.673 3.412-2.174 3.304-.501-.107-.826.905-.723 2.25.209 2.717-.587 3.071-2.69 1.196-1.177-1.05-1.207-.991-.187.367 1.368 1.824-.225 3.796-3.511 4.347-.99.166-1.658.892-1.485 1.613.412 1.717-1.891 5.994-2.894 5.374-.427-.264-1.065.426-1.416 1.534-.352 1.108-1.086 2.015-1.631 2.015-.546 0-.743.403-.439.895.536.867-2.201 2.573-3.649 2.276-.393-.081-.429.596-.08 1.505.4 1.043.237 1.407-.443.987-.697-.431-.877.098-.509 1.504.45 1.722.224 2.039-1.093 1.533-1.083-.416-1.661-.126-1.661.831 0 .808-.417 1.469-.927 1.469-1.193 0-4.199 5.987-3.541 7.052.276.446-.026 1.135-.67 1.533-.731.452-.903.291-.457-.43.392-.635.222-1.155-.377-1.155-.6 0-1.383.788-1.74 1.75-.357.963-1.46 2.471-2.45 3.352-.991.88-1.492 1.911-1.113 2.289.378.379-.294.945-1.494 1.259-1.495.391-2.378 1.615-2.805 3.891-.382 2.04-1.095 3.14-1.846 2.851-.673-.258-1.744.673-2.38 2.069-.637 1.397-1.585 2.539-2.107 2.539-1.995 0-3.889 3.071-3.687 5.98.178 2.583-.077 2.942-1.723 2.419-1.16-.368-1.688-.216-1.319.381.338.546-.035 1.532-.829 2.191-1.229 1.02-1.041 1.604 1.261 3.937 1.487 1.507 2.994 2.597 3.349 2.422.355-.175.883.301 1.174 1.058.29.757 5.175 3.736 10.854 6.621 5.68 2.884 10.89 5.692 11.577 6.24.688.548 1.25.704 1.25.348 0-.357 1.293.02 2.873.837 1.58.818 3.155 1.204 3.5.859.345-.344.627-.064.627.624 0 .687.563 1.06 1.25.828.688-.233 2.825.233 4.75 1.034 1.925.801 3.608 1.416 3.74 1.366.131-.05.806.082 1.5.292 9.188 2.784 29.05 3.498 33.487 1.204 6.446-3.333 6.499-5.645.308-13.478-7.781-9.843-9.656-16.202-6.278-21.288 4.688-7.061 10.569-10.406 36.425-20.719 37.274-14.868 53.781-29.021 60.781-52.113 4.258-14.044 5.543-25.271 4.049-35.357-1.272-8.585-3.749-19.459-4.823-21.177-.347-.555-.759-1.831-.915-2.835-.157-1.004-.823-2.804-1.481-4-.658-1.196-1.306-2.841-1.44-3.656-.134-.815-.721-1.641-1.305-1.835-.583-.195-.806-.765-.495-1.268.311-.503.062-.915-.553-.915s-.857-.422-.538-.939c.319-.516-.217-1.402-1.191-1.969-.974-.567-1.416-1.045-.982-1.062.434-.016-.113-.998-1.215-2.181-1.103-1.184-1.769-2.534-1.48-3 .288-.467.047-.849-.535-.849-.582 0-1.059-.372-1.059-.827 0-.455-2.003-3.008-4.451-5.675-2.448-2.666-4.176-5.331-3.84-5.923.337-.591.264-.762-.16-.38-.424.382-1.887-.632-3.251-2.253-1.364-1.621-2.858-2.714-3.32-2.428-.462.285-1.122.061-1.468-.498-.942-1.524-4.493-1.223-5.13.436m-77.182 87.497c2.033.396 4.304 1.131 5.047 1.635.742.504.491.129-.559-.834-1.056-.969-3.309-1.699-5.047-1.635-3.099.114-3.092.124.559.834m-13.198.992c0 .518.445 1.216.989 1.552.566.35.734-.051.393-.941-.665-1.732-1.382-2.049-1.382-.611m23.5.059c.34.55.816 1 1.059 1s.441-.45.441-1-.477-1-1.059-1-.781.45-.441 1M83 132.383c0 .211 1.111.596 2.47.856 1.358.26 2.232.087 1.941-.383-.512-.829-4.411-1.246-4.411-.473m38.861 1.676l-2.361 2.06 2.752-1.676c1.513-.921 3.651-1.44 4.75-1.153 1.099.288 1.998.115 1.998-.384 0-1.688-4.764-.918-7.139 1.153m-18.237 1.48c-.965 2.514-.681 3.163.498 1.136.584-1.004.851-2.036.593-2.293-.257-.258-.749.263-1.091 1.157M90.031 143.5c0 .55.436 1.675.969 2.5.533.825.969 1.05.969.5s-.436-1.675-.969-2.5c-.533-.825-.969-1.05-.969-.5m9.793 3.546c-.921 2.175-1.495 3.954-1.275 3.954.733 0 3.577-6.122 3.262-7.022-.171-.487-1.065.894-1.987 3.068m-5.091 4.078c.679.684 1.486.991 1.793.683.308-.308-.247-.867-1.233-1.243-1.425-.542-1.54-.428-.56.56M63 207.5c-.718.865-.815 1.5-.229 1.5.558 0 1.274-.675 1.591-1.5.316-.825.419-1.5.229-1.5-.19 0-.906.675-1.591 1.5m128.302 22.404c-1.759.984-7.722 4.859-13.25 8.61-11.86 8.049-12.647 9.922-5.802 13.826 2.338 1.333 5.504 2.714 7.037 3.07 6.503 1.509 16.481-4.218 19.362-11.112 1.586-3.796 1.798-11.904.335-12.808-.559-.346-.787-1-.506-1.454.473-.765-1.778-2.11-3.31-1.979-.367.032-2.107.863-3.866 1.847" fill="#1976D2" fill-rule="evenodd"/></svg>